<?xml version="1.0" standalone="no"?><!DOCTYPE svg PUBLIC "-//W3C//DTD SVG 1.1//EN" "http://www.w3.org/Graphics/SVG/1.1/DTD/svg11.dtd"><svg t="1501290886829" class="icon" style="" viewBox="0 0 1024 1024" version="1.1" xmlns="http://www.w3.org/2000/svg" p-id="4260" xmlns:xlink="http://www.w3.org/1999/xlink" width="32" height="32"><defs><style type="text/css"></style></defs><path d="M892.81 668.938c-11.049-9.38-161.894-144.45-171.786-154.665-9.892-10.224-20.04-10.01-20.04-10.01H450.35s-40.863 3.626-40.09 40.044c0.482 23.368 15.069 43.9 39.578 49.357 21.683 3.932 73.493 8.028 110.807 10.706 13.41 0.968 0 10.015 0 10.015l-48.45 34.78H343.352s-68.787-50.007-113.505-84.833c-72.381-52.583-100.244 0-100.244 0s-8.638 18.82 0.63 29.532c39.843 36.132 179.092 161.356 189.849 170.644 10.762 9.288 23.301 5.258 23.301 5.258s266.967-0.312 289.444 0c22.482 0.333 38.129 14.761 38.129 14.761s45.777 40.213 56.78 49.419c22.764 19.056 35.385 0 35.385 0l129.771-141.41c-0.082-0.03 11.715-13.588-0.082-23.598z m0 0M696.32 215.895c0 12.631-7.188 19.625-17.213 19.625H352.312c-10.025 0-19.512-6.994-19.512-19.625v-11.433c0-12.636 9.487-25.262 19.512-25.262h326.795c10.025 0 17.213 12.626 17.213 25.262v11.433zM185.984 210.176a5.584 5.584 0 1 0 57.18 0 5.584 5.584 0 1 0-57.18 0zM696.32 370.284c0 12.63-7.188 18.836-17.213 18.836H352.312c-10.025 0-19.512-6.205-19.512-18.836V358.85c0-12.637 9.487-26.051 19.512-26.051h326.795c10.025 0 17.213 13.414 17.213 26.045v11.439zM185.984 364.564a5.584 5.584 0 1 0 57.18 0 5.584 5.584 0 1 0-57.18 0z" p-id="4261" fill="#1296db"></path></svg>